<?xml version="1.0" encoding="utf-8"?>
<!-- Generator: Adobe Illustrator 25.0.1, SVG Export Plug-In . SVG Version: 6.00 Build 0)  -->
<svg version="1.1" id="Layer_1" xmlns="http://www.w3.org/2000/svg" xmlns:xlink="http://www.w3.org/1999/xlink" x="0px" y="0px"
	 viewBox="0 0 311.86 226" style="enable-background:new 0 0 311.86 226;" xml:space="preserve">
<style type="text/css">
	.st0{display:none;}
	.st1{fill:#FBB03B;}
	.st2{fill:#DDDDDD;}
	.st3{opacity:0.2;}
</style>
<rect x="0.06" y="0" class="st0" width="312" height="226"/>
<g>
	<g>
		<polygon class="st1" points="202.81,181 280.81,181 237.81,120 211.81,138 222.81,153 216.2,158.22 190.2,122.22 196.81,117 
			207.81,132 233.81,114 199.81,66 158.81,124 		"/>
		<polygon class="st2" points="164.81,102 194.81,59 153.81,0 96.81,82 96.81,82 96.81,82 124.81,106 93.81,150 84.81,150 
			113.81,108 91.81,89 27.81,181 109.81,181 140.81,136 141.96,134.34 159.81,109 130.81,84 153.81,51 158.81,58 141.81,82 		"/>
	</g>
	<g>
		<g>
			<path class="st2" d="M3.36,216.31c0.73-1.68,1.65-2.47,3.37-3.08c2.21-0.76,3.31-1.14,5.49-1.91c1.71-0.56,2.18-0.36,1.79,1.23
				c-0.47,1.94,0.6,2.97,3.13,2.97c3.03,0,5.36-0.79,6.85-3.2c1.38-2.24-0.58-2.79-3.12-3.31c-4.49-0.92-10.85-2.08-3.22-12.96
				c5.19-7.4,12.88-12.56,20.21-12.56c5.68,0,7.4,2.47,6.16,7.85c-0.38,1.63-1.18,2.47-2.8,3.14c-2.18,0.96-3.27,1.45-5.49,2.41
				c-1.56,0.67-1.88,0.45-1.5-1.18c0.5-2.12-0.46-2.92-2.32-2.92c-2.74,0-4.46,0.95-5.76,2.92c-1.59,2.41,0.56,2.89,3.21,3.42
				c4.23,0.84,9.67,2.47,3.58,13.07C28.21,220.46,19.32,225,10.98,225C3.95,225,0.99,222.14,3.36,216.31z"/>
			<path class="st2" d="M30.92,221.8c6.54-11.7,13.08-23.4,19.62-35.11c0.97-1.74,1.7-2.36,2.94-2.36c6.47,0,9.7,0,16.16,0
				c1.23,0,1.38,0.62,0.59,2.36c-0.91,2.02-1.37,3.03-2.28,5.05c-0.81,1.79-1.51,2.36-2.81,2.36c-4.29,0-6.44,0-10.73,0
				c-1.04,2.02-1.57,3.03-2.61,5.05c3.52,0,5.28,0,8.8,0c1.33,0,1.51,0.62,0.67,2.41c-0.93,2-1.39,2.99-2.32,4.99
				c-0.83,1.79-1.6,2.41-3,2.41c-3.69,0-5.54,0-9.24,0c-1.11,2.15-1.67,3.23-2.79,5.38c4.9,0,7.36,0,12.26,0
				c1.39,0,1.63,0.56,0.82,2.36c-0.92,2.04-1.38,3.06-2.3,5.1c-0.78,1.74-1.58,2.35-3.03,2.35c-8.04,0-12.06,0-20.11,0
				C30.08,224.16,29.95,223.54,30.92,221.8z"/>
			<path class="st2" d="M58.44,221.8c5.08-11.7,10.16-23.4,15.24-35.11c0.75-1.74,1.41-2.36,2.64-2.36c4.4,0,6.6,0,10.99,0
				c5.83,0,8.1,4.82,5.38,13.52c-1.7,5.44-4.65,9.42-8.35,11.55c0.19,0.73,0.33,1.51,0.39,2.41c0.33,3.84,0.54,5.75,1.02,9.59
				c0.18,1.51-0.52,2.75-2.08,2.75c-2.03,0-3.04,0-5.07,0c-2.49,0-3.27-0.73-3.36-2.69c-0.09-3.07-0.11-4.61-0.11-7.68
				c-0.05-1.91-0.44-2.86-2.25-2.86c-0.41,0-0.61,0-1.02,0c-1.71,4.35-2.56,6.53-4.27,10.88c-0.68,1.74-1.39,2.35-2.9,2.35
				c-2.12,0-3.19,0-5.31,0C57.89,224.16,57.69,223.54,58.44,221.8z M84.23,197.8c0.82-2.3,0.38-3.7-1.37-3.7c-1.76,0-2.63,0-4.39,0
				c-1.17,2.98-1.76,4.48-2.93,7.46c1.82,0,2.74,0,4.56,0C81.88,201.56,83.41,200.1,84.23,197.8z"/>
			<path class="st2" d="M96.38,222.31c-0.34-11.89-0.13-23.8,0.65-35.67c0.08-1.51,0.67-2.3,1.83-2.3c1.76,0,2.64,0,4.4,0
				c1.97,0,2.42,0.62,2.24,2.36c-0.51,7.67-0.69,11.51-0.89,19.18c-0.11,3.31-0.77,7.24-0.77,7.24c0.16,0,0.24,0,0.4,0
				c0,0,1.09-3.81,2.6-7.18c3.42-7.69,5.05-11.54,8.16-19.24c0.68-1.74,1.38-2.36,3.27-2.36c1.73,0,2.59,0,4.32,0
				c1.2,0,1.34,0.79,0.7,2.3c-4.94,12.06-10.35,23.92-16.2,35.56c-0.81,1.63-1.5,1.96-2.86,1.96c-2.35,0-3.52,0-5.87,0
				C96.98,224.16,96.42,223.77,96.38,222.31z"/>
			<path class="st2" d="M120.21,221.91c1.81-11.78,3.62-23.55,5.43-35.33c0.26-1.68,0.73-2.24,1.89-2.24c1.81,0,2.71,0,4.51,0
				c1.16,0,1.48,0.56,1.29,2.24c-1.32,11.78-2.64,23.55-3.96,35.33c-0.19,1.68-0.72,2.24-2.13,2.24c-2.2,0-3.3,0-5.5,0
				C120.33,224.16,119.95,223.6,120.21,221.91z"/>
			<path class="st2" d="M134.68,209.35c0.38-4.08,0.57-6.12,0.95-10.21c0.9-9.65,5.68-15.65,13.25-15.65c5.91,0,9.63,3.53,11.5,9.81
				c0.5,1.63,0.21,2.41-0.97,3.03c-1.74,0.85-2.61,1.28-4.39,2.13c-1.29,0.5-1.77,0.19-2.23-1.51c-0.68-2.5-1.88-3.65-4.19-3.65
				c-3.2,0-4.55,1.91-4.75,5.78c-0.21,4.13-0.32,6.19-0.53,10.32c-0.2,3.87,1.1,5.78,4.66,5.78c2.52,0,3.98-1.25,4.71-3.64
				c0.53-1.73,1.11-2.13,2.39-1.51c1.89,0.85,2.84,1.28,4.77,2.13c1.3,0.56,1.7,1.4,1.26,3.03c-1.64,6.28-6.14,9.81-13.4,9.81
				C138.41,225,133.78,219,134.68,209.35z"/>
			<path class="st2" d="M164.76,221.8c-0.57-11.7-1.14-23.4-1.7-35.11c-0.08-1.74,0.27-2.36,1.51-2.36c6.47,0,9.7,0,16.17,0
				c1.23,0,1.75,0.62,2.02,2.36c0.31,2.02,0.47,3.03,0.78,5.05c0.28,1.79-0.08,2.36-1.38,2.36c-4.29,0-6.44,0-10.73,0
				c0.18,2.02,0.27,3.03,0.45,5.05c3.52,0,5.28,0,8.8,0c1.33,0,1.88,0.62,2.14,2.41c0.29,2,0.43,2.99,0.72,4.99
				c0.26,1.79-0.14,2.41-1.54,2.41c-3.69,0-5.54,0-9.24,0c0.19,2.15,0.29,3.23,0.49,5.38c4.9,0,7.36,0,12.26,0
				c1.39,0,1.97,0.56,2.25,2.36c0.32,2.04,0.48,3.06,0.8,5.1c0.27,1.74-0.15,2.35-1.6,2.35c-8.04,0-12.07,0-20.11,0
				C165.34,224.16,164.84,223.54,164.76,221.8z"/>
			<path class="st1" d="M189.11,209.35c-0.69-4.08-1.03-6.12-1.72-10.21c-1.63-9.65,1.59-15.65,9.15-15.65
				c5.91,0,10.56,3.53,14.07,9.81c0.92,1.63,0.84,2.41-0.18,3.03c-1.51,0.85-2.28,1.28-3.83,2.13c-1.15,0.5-1.72,0.19-2.63-1.51
				c-1.34-2.51-2.83-3.65-5.14-3.65c-3.2,0-4.05,1.91-3.24,5.78c0.87,4.13,1.3,6.19,2.17,10.32c0.81,3.87,2.61,5.78,6.17,5.78
				c2.52,0,3.65-1.25,3.76-3.64c0.08-1.73,0.55-2.13,1.99-1.51c2.11,0.85,3.18,1.28,5.32,2.13c1.45,0.56,2.06,1.4,2.05,3.03
				c0,6.28-3.57,9.81-10.83,9.81C196.94,225,190.74,219,189.11,209.35z"/>
			<path class="st1" d="M219.82,221.86c0.03-11.87-0.52-23.74-1.64-35.56c-0.17-1.63,0.24-1.96,1.33-1.96c1.76,0,2.64,0,4.4,0
				c1.08,0,1.77,0.39,2.73,1.85c7.97,12.11,16.21,23.96,24.76,35.67c1.13,1.51,1.06,2.3-0.35,2.3c-2.03,0-3.04,0-5.07,0
				c-2.4,0-3.4-0.62-4.46-2.35c-1.05-1.62-1.57-2.42-2.61-4.04c-3.98,0-5.97,0-9.95,0c0.14,1.62,0.21,2.42,0.33,4.04
				c0.17,1.74-0.28,2.35-2.58,2.35c-1.97,0-2.96,0-4.93,0C220.32,224.16,219.81,223.37,219.82,221.86z M229.36,202.4
				c-2.28-3.81-3.86-7.91-3.86-7.91c-0.16,0-0.24,0-0.41,0c0,0,1.54,4.04,2.08,7.85c0.34,2.65,0.49,3.97,0.79,6.62
				c2.19,0,3.28,0,5.47,0C231.78,206.34,230.97,205.02,229.36,202.4z"/>
			<path class="st1" d="M254.11,221.8c-5.31-11.7-10.63-23.4-15.94-35.11c-0.79-1.74-0.68-2.36,0.55-2.36c4.4,0,6.6,0,11,0
				c5.82,0,12.38,4.82,17.39,13.52c3.13,5.44,3.72,9.42,1.91,11.55c0.84,0.73,1.68,1.51,2.53,2.41c3.74,3.84,5.65,5.75,9.53,9.59
				c1.52,1.51,1.92,2.75,0.36,2.75c-2.03,0-3.04,0-5.07,0c-2.49,0-3.92-0.73-5.75-2.69c-2.82-3.07-4.2-4.61-6.94-7.68
				c-1.75-1.91-2.98-2.86-4.79-2.86c-0.41,0-0.61,0-1.02,0c2.16,4.35,3.24,6.53,5.39,10.88c0.86,1.74,0.7,2.35-0.81,2.35
				c-2.12,0-3.19,0-5.31,0C255.65,224.16,254.9,223.54,254.11,221.8z M258.57,197.8c-1.22-2.3-2.9-3.7-4.65-3.7
				c-1.76,0-2.63,0-4.39,0c1.48,2.98,2.22,4.48,3.7,7.46c1.82,0,2.74,0,4.56,0C259.56,201.56,259.8,200.1,258.57,197.8z"/>
			<path class="st1" d="M285.02,221.8c-6.96-11.7-13.91-23.4-20.87-35.11c-1.03-1.74-1.01-2.36,0.22-2.36c6.47,0,9.7,0,16.16,0
				c1.23,0,2.09,0.62,3.31,2.36c1.41,2.02,2.12,3.03,3.54,5.05c1.26,1.79,1.2,2.36-0.1,2.36c-4.29,0-6.44,0-10.73,0
				c1.28,2.02,1.93,3.03,3.21,5.05c3.52,0,5.28,0,8.8,0c1.33,0,2.22,0.62,3.46,2.41c1.38,2,2.07,2.99,3.44,4.99
				c1.24,1.79,1.18,2.41-0.22,2.41c-3.69,0-5.54,0-9.24,0c1.37,2.15,2.05,3.23,3.42,5.38c4.9,0,7.36,0,12.26,0
				c1.39,0,2.28,0.56,3.54,2.36c1.43,2.04,2.15,3.06,3.58,5.1c1.22,1.74,1.14,2.35-0.32,2.35c-8.04,0-12.06,0-20.11,0
				C286.89,224.16,286.05,223.54,285.02,221.8z"/>
		</g>
	</g>
	<g class="st3">
		<g>
			<path class="st2" d="M5.32,217.31c0.72-1.68,1.63-2.47,3.35-3.08c2.2-0.76,3.29-1.14,5.45-1.91c1.7-0.56,2.16-0.36,1.78,1.23
				c-0.46,1.94,0.6,2.97,3.11,2.97c3.01,0,5.33-0.79,6.81-3.2c1.38-2.24-0.58-2.79-3.1-3.31c-4.46-0.92-10.78-2.08-3.2-12.96
				c5.16-7.4,12.8-12.56,20.08-12.56c5.65,0,7.35,2.47,6.12,7.85c-0.38,1.63-1.18,2.47-2.78,3.14c-2.16,0.96-3.25,1.45-5.46,2.41
				c-1.55,0.67-1.87,0.45-1.49-1.18c0.5-2.12-0.46-2.92-2.3-2.92c-2.73,0-4.43,0.95-5.72,2.92c-1.58,2.41,0.56,2.89,3.19,3.42
				c4.21,0.84,9.61,2.47,3.56,13.07C30.01,221.46,21.18,226,12.89,226C5.91,226,2.96,223.14,5.32,217.31z"/>
			<path class="st2" d="M32.71,222.8c6.5-11.7,13-23.4,19.5-35.11c0.97-1.74,1.69-2.36,2.92-2.36c6.42,0,9.64,0,16.06,0
				c1.23,0,1.37,0.62,0.59,2.36c-0.91,2.02-1.36,3.03-2.27,5.05c-0.81,1.79-1.5,2.36-2.8,2.36c-4.26,0-6.4,0-10.66,0
				c-1.04,2.02-1.56,3.03-2.59,5.05c3.5,0,5.25,0,8.74,0c1.33,0,1.5,0.62,0.67,2.41c-0.92,2-1.38,2.99-2.3,4.99
				c-0.83,1.79-1.59,2.41-2.98,2.41c-3.67,0-5.51,0-9.18,0c-1.11,2.15-1.66,3.23-2.77,5.38c4.87,0,7.31,0,12.18,0
				c1.38,0,1.62,0.56,0.82,2.36c-0.91,2.04-1.37,3.06-2.29,5.1c-0.78,1.74-1.57,2.35-3.02,2.35c-7.99,0-11.99,0-19.98,0
				C31.87,225.16,31.74,224.54,32.71,222.8z"/>
			<path class="st2" d="M60.05,222.8c5.05-11.7,10.09-23.4,15.14-35.11c0.75-1.74,1.4-2.36,2.63-2.36c4.37,0,6.55,0,10.92,0
				c5.79,0,8.05,4.82,5.35,13.52c-1.69,5.44-4.62,9.42-8.3,11.55c0.19,0.73,0.33,1.51,0.39,2.41c0.33,3.84,0.53,5.75,1.01,9.59
				c0.18,1.51-0.52,2.75-2.06,2.75c-2.02,0-3.02,0-5.04,0c-2.47,0-3.25-0.73-3.34-2.69c-0.09-3.07-0.11-4.61-0.11-7.68
				c-0.05-1.91-0.44-2.86-2.24-2.86c-0.4,0-0.61,0-1.01,0c-1.7,4.35-2.55,6.53-4.24,10.88c-0.68,1.74-1.38,2.35-2.88,2.35
				c-2.11,0-3.16,0-5.27,0C59.5,225.16,59.3,224.54,60.05,222.8z M85.67,198.8c0.81-2.3,0.38-3.7-1.36-3.7c-1.74,0-2.62,0-4.36,0
				c-1.16,2.98-1.75,4.48-2.91,7.46c1.81,0,2.72,0,4.53,0C83.34,202.56,84.86,201.1,85.67,198.8z"/>
			<path class="st2" d="M97.75,223.31c-0.34-11.89-0.12-23.8,0.64-35.67c0.07-1.51,0.67-2.3,1.82-2.3c1.75,0,2.62,0,4.37,0
				c1.96,0,2.4,0.62,2.22,2.36c-0.51,7.67-0.69,11.51-0.88,19.18c-0.11,3.31-0.76,7.24-0.76,7.24c0.16,0,0.24,0,0.4,0
				c0,0,1.08-3.81,2.58-7.18c3.4-7.69,5.02-11.54,8.11-19.24c0.68-1.74,1.38-2.36,3.25-2.36c1.72,0,2.58,0,4.29,0
				c1.19,0,1.33,0.79,0.69,2.3c-4.9,12.06-10.29,23.91-16.1,35.56c-0.81,1.63-1.49,1.96-2.84,1.96c-2.33,0-3.5,0-5.84,0
				C98.34,225.16,97.79,224.77,97.75,223.31z"/>
			<path class="st2" d="M121.42,222.91c1.8-11.78,3.6-23.55,5.39-35.33c0.26-1.68,0.73-2.24,1.88-2.24c1.79,0,2.69,0,4.49,0
				c1.15,0,1.47,0.56,1.28,2.24c-1.31,11.78-2.62,23.55-3.93,35.33c-0.19,1.68-0.72,2.24-2.12,2.24c-2.18,0-3.28,0-5.46,0
				C121.55,225.16,121.16,224.6,121.42,222.91z"/>
			<path class="st2" d="M135.8,210.35c0.38-4.08,0.57-6.12,0.95-10.21c0.89-9.65,5.65-15.65,13.16-15.65
				c5.88,0,9.57,3.53,11.43,9.81c0.5,1.63,0.2,2.41-0.96,3.03c-1.73,0.85-2.6,1.28-4.36,2.13c-1.28,0.5-1.76,0.19-2.22-1.51
				c-0.67-2.5-1.87-3.65-4.16-3.65c-3.18,0-4.52,1.91-4.72,5.78c-0.21,4.13-0.32,6.19-0.53,10.32c-0.2,3.87,1.09,5.78,4.63,5.78
				c2.51,0,3.95-1.25,4.68-3.64c0.53-1.73,1.1-2.13,2.37-1.51c1.88,0.85,2.82,1.28,4.74,2.13c1.3,0.56,1.69,1.4,1.25,3.03
				c-1.63,6.28-6.1,9.81-13.32,9.81C139.51,226,134.91,220,135.8,210.35z"/>
			<path class="st2" d="M165.69,222.8c-0.56-11.7-1.13-23.4-1.69-35.11c-0.08-1.74,0.27-2.36,1.5-2.36c6.42,0,9.64,0,16.06,0
				c1.23,0,1.74,0.62,2.01,2.36c0.31,2.02,0.47,3.03,0.78,5.05c0.28,1.79-0.08,2.36-1.37,2.36c-4.26,0-6.4,0-10.66,0
				c0.18,2.02,0.27,3.03,0.45,5.05c3.5,0,5.25,0,8.74,0c1.33,0,1.87,0.62,2.13,2.41c0.29,2,0.43,2.99,0.71,4.99
				c0.26,1.79-0.13,2.41-1.53,2.41c-3.67,0-5.51,0-9.18,0c0.19,2.15,0.29,3.23,0.48,5.38c4.87,0,7.31,0,12.18,0
				c1.38,0,1.96,0.56,2.24,2.36c0.32,2.04,0.48,3.06,0.79,5.1c0.27,1.74-0.15,2.35-1.59,2.35c-7.99,0-11.99,0-19.98,0
				C166.27,225.16,165.77,224.54,165.69,222.8z"/>
			<path class="st1" d="M189.89,210.35c-0.68-4.08-1.03-6.12-1.71-10.21c-1.62-9.65,1.58-15.65,9.09-15.65
				c5.88,0,10.49,3.53,13.98,9.81c0.92,1.63,0.83,2.41-0.17,3.03c-1.5,0.85-2.26,1.28-3.81,2.13c-1.15,0.5-1.71,0.19-2.61-1.51
				c-1.33-2.51-2.81-3.65-5.11-3.65c-3.18,0-4.02,1.91-3.22,5.78c0.86,4.13,1.29,6.19,2.16,10.32c0.81,3.87,2.59,5.78,6.13,5.78
				c2.51,0,3.63-1.25,3.73-3.64c0.08-1.73,0.55-2.13,1.98-1.51c2.1,0.85,3.16,1.28,5.29,2.13c1.44,0.56,2.05,1.4,2.04,3.03
				c0,6.28-3.54,9.81-10.76,9.81C197.66,226,191.5,220,189.89,210.35z"/>
			<path class="st1" d="M220.4,222.86c0.03-11.87-0.52-23.74-1.63-35.56c-0.17-1.63,0.24-1.96,1.32-1.96c1.75,0,2.62,0,4.37,0
				c1.07,0,1.76,0.39,2.72,1.85c7.92,12.11,16.11,23.96,24.6,35.67c1.13,1.51,1.06,2.3-0.34,2.3c-2.02,0-3.03,0-5.04,0
				c-2.38,0-3.38-0.62-4.43-2.35c-1.04-1.62-1.56-2.42-2.59-4.04c-3.95,0-5.93,0-9.88,0c0.14,1.62,0.2,2.42,0.33,4.04
				c0.17,1.74-0.28,2.35-2.56,2.35c-1.96,0-2.94,0-4.9,0C220.89,225.16,220.39,224.37,220.4,222.86z M229.88,203.4
				c-2.26-3.81-3.83-7.91-3.83-7.91c-0.16,0-0.24,0-0.4,0c0,0,1.53,4.04,2.07,7.85c0.33,2.65,0.49,3.97,0.78,6.62
				c2.17,0,3.26,0,5.44,0C232.29,207.34,231.48,206.02,229.88,203.4z"/>
			<path class="st1" d="M254.47,222.8c-5.28-11.7-10.56-23.4-15.84-35.11c-0.78-1.74-0.68-2.36,0.55-2.36c4.37,0,6.56,0,10.93,0
				c5.79,0,12.3,4.82,17.27,13.52c3.11,5.44,3.69,9.42,1.9,11.55c0.84,0.73,1.66,1.51,2.51,2.41c3.72,3.84,5.61,5.75,9.47,9.59
				c1.51,1.51,1.9,2.75,0.36,2.75c-2.02,0-3.02,0-5.04,0c-2.47,0-3.89-0.73-5.71-2.69c-2.8-3.07-4.18-4.61-6.89-7.68
				c-1.74-1.91-2.96-2.86-4.76-2.86c-0.4,0-0.61,0-1.01,0c2.14,4.35,3.22,6.53,5.36,10.88c0.86,1.74,0.69,2.35-0.8,2.35
				c-2.11,0-3.17,0-5.28,0C256,225.16,255.26,224.54,254.47,222.8z M258.91,198.8c-1.22-2.3-2.89-3.7-4.62-3.7
				c-1.74,0-2.62,0-4.36,0c1.47,2.98,2.2,4.48,3.67,7.46c1.81,0,2.72,0,4.53,0C259.89,202.56,260.12,201.1,258.91,198.8z"/>
			<path class="st1" d="M285.19,222.8c-6.91-11.7-13.82-23.4-20.74-35.11c-1.03-1.74-1.01-2.36,0.22-2.36c6.42,0,9.64,0,16.06,0
				c1.23,0,2.08,0.62,3.29,2.36c1.41,2.02,2.11,3.03,3.51,5.05c1.25,1.79,1.2,2.36-0.1,2.36c-4.26,0-6.4,0-10.66,0
				c1.28,2.02,1.91,3.03,3.19,5.05c3.5,0,5.25,0,8.74,0c1.33,0,2.2,0.62,3.43,2.41c1.37,2,2.05,2.99,3.42,4.99
				c1.23,1.79,1.17,2.41-0.22,2.41c-3.67,0-5.51,0-9.18,0c1.36,2.15,2.04,3.23,3.4,5.38c4.87,0,7.31,0,12.18,0
				c1.38,0,2.27,0.56,3.52,2.36c1.42,2.04,2.14,3.06,3.56,5.1c1.21,1.74,1.13,2.35-0.32,2.35c-7.99,0-11.99,0-19.98,0
				C287.04,225.16,286.21,224.54,285.19,222.8z"/>
		</g>
	</g>
</g>
</svg>
