<?xml version="1.0" encoding="utf-8"?>
<!-- Generator: Adobe Illustrator 25.0.1, SVG Export Plug-In . SVG Version: 6.00 Build 0)  -->
<svg version="1.1" id="Layer_1" xmlns="http://www.w3.org/2000/svg" xmlns:xlink="http://www.w3.org/1999/xlink" x="0px" y="0px"
	 viewBox="0 0 600 600" style="enable-background:new 0 0 600 600;" xml:space="preserve">
<style type="text/css">
	.st0{fill:#FBB03B;}
	.st1{fill:#FFFFFF;}
	.st2{opacity:0.2;}
	.st3{display:none;}
	.st4{display:inline;}
	.st5{font-family:'PantonDemo-Black';}
	.st6{font-size:40.2168px;}
</style>
<g>
	<polygon class="st0" points="357.75,308 435.75,308 392.75,247 366.75,265 377.75,280 371.14,285.22 345.14,249.22 351.75,244 
		362.75,259 388.75,241 354.75,193 313.75,251 	"/>
	<polygon class="st1" points="319.75,229 349.75,186 308.75,127 251.75,209 251.75,209 251.75,209 279.75,233 248.75,277 
		239.75,277 268.75,235 246.75,216 182.75,308 264.75,308 295.75,263 296.89,261.34 314.75,236 285.75,211 308.75,178 313.75,185 
		296.75,209 	"/>
</g>
<g>
	<g>
		<path class="st1" d="M158.29,343.31c0.73-1.68,1.65-2.47,3.37-3.08c2.21-0.76,3.31-1.14,5.49-1.91c1.71-0.56,2.18-0.36,1.79,1.23
			c-0.47,1.94,0.6,2.97,3.13,2.97c3.03,0,5.36-0.79,6.85-3.2c1.38-2.24-0.58-2.79-3.12-3.31c-4.49-0.92-10.85-2.08-3.22-12.96
			c5.19-7.4,12.88-12.56,20.21-12.56c5.68,0,7.4,2.47,6.16,7.85c-0.38,1.63-1.18,2.47-2.8,3.14c-2.18,0.96-3.27,1.45-5.49,2.41
			c-1.56,0.67-1.88,0.45-1.5-1.18c0.5-2.12-0.46-2.92-2.32-2.92c-2.74,0-4.46,0.95-5.76,2.92c-1.59,2.41,0.56,2.89,3.21,3.42
			c4.23,0.84,9.67,2.47,3.58,13.07c-4.74,8.24-13.62,12.79-21.97,12.79C158.89,352,155.92,349.14,158.29,343.31z"/>
		<path class="st1" d="M185.86,348.8c6.54-11.7,13.08-23.4,19.62-35.11c0.97-1.74,1.7-2.36,2.94-2.36c6.47,0,9.7,0,16.16,0
			c1.23,0,1.38,0.62,0.59,2.36c-0.91,2.02-1.37,3.03-2.28,5.05c-0.81,1.79-1.51,2.36-2.81,2.36c-4.29,0-6.44,0-10.73,0
			c-1.04,2.02-1.57,3.03-2.61,5.05c3.52,0,5.28,0,8.8,0c1.33,0,1.51,0.62,0.67,2.41c-0.93,2-1.39,2.99-2.32,4.99
			c-0.83,1.79-1.6,2.41-3,2.41c-3.69,0-5.54,0-9.24,0c-1.11,2.15-1.67,3.23-2.79,5.38c4.9,0,7.36,0,12.26,0
			c1.39,0,1.63,0.56,0.82,2.36c-0.92,2.04-1.38,3.06-2.3,5.1c-0.78,1.74-1.58,2.35-3.03,2.35c-8.04,0-12.06,0-20.11,0
			C185.01,351.16,184.89,350.54,185.86,348.8z"/>
		<path class="st1" d="M213.38,348.8c5.08-11.7,10.16-23.4,15.24-35.11c0.75-1.74,1.41-2.36,2.64-2.36c4.4,0,6.6,0,10.99,0
			c5.83,0,8.1,4.82,5.38,13.52c-1.7,5.44-4.65,9.42-8.35,11.55c0.19,0.73,0.33,1.51,0.39,2.41c0.33,3.84,0.54,5.75,1.02,9.59
			c0.18,1.51-0.52,2.75-2.08,2.75c-2.03,0-3.04,0-5.07,0c-2.49,0-3.27-0.73-3.36-2.69c-0.09-3.07-0.11-4.61-0.11-7.68
			c-0.05-1.91-0.44-2.86-2.25-2.86c-0.41,0-0.61,0-1.02,0c-1.71,4.35-2.56,6.53-4.27,10.88c-0.68,1.74-1.39,2.35-2.9,2.35
			c-2.12,0-3.19,0-5.31,0C212.83,351.16,212.62,350.54,213.38,348.8z M239.16,324.8c0.82-2.3,0.38-3.7-1.37-3.7
			c-1.76,0-2.63,0-4.39,0c-1.17,2.98-1.76,4.48-2.93,7.46c1.82,0,2.74,0,4.56,0C236.81,328.56,238.34,327.1,239.16,324.8z"/>
		<path class="st1" d="M251.32,349.31c-0.34-11.89-0.13-23.8,0.65-35.67c0.08-1.51,0.67-2.3,1.83-2.3c1.76,0,2.64,0,4.4,0
			c1.97,0,2.42,0.62,2.24,2.36c-0.51,7.67-0.69,11.51-0.89,19.18c-0.11,3.31-0.77,7.24-0.77,7.24c0.16,0,0.24,0,0.4,0
			c0,0,1.09-3.81,2.6-7.18c3.42-7.69,5.05-11.54,8.16-19.24c0.68-1.74,1.38-2.36,3.27-2.36c1.73,0,2.59,0,4.32,0
			c1.2,0,1.34,0.79,0.7,2.3c-4.94,12.06-10.35,23.92-16.2,35.56c-0.81,1.63-1.5,1.96-2.86,1.96c-2.35,0-3.52,0-5.87,0
			C251.92,351.16,251.36,350.77,251.32,349.31z"/>
		<path class="st1" d="M275.14,348.91c1.81-11.78,3.62-23.55,5.43-35.33c0.26-1.68,0.73-2.24,1.89-2.24c1.81,0,2.71,0,4.51,0
			c1.16,0,1.48,0.56,1.29,2.24c-1.32,11.78-2.64,23.55-3.96,35.33c-0.19,1.68-0.72,2.24-2.13,2.24c-2.2,0-3.3,0-5.5,0
			C275.27,351.16,274.88,350.6,275.14,348.91z"/>
		<path class="st1" d="M289.62,336.35c0.38-4.08,0.57-6.12,0.95-10.21c0.9-9.65,5.68-15.65,13.25-15.65c5.91,0,9.63,3.53,11.5,9.81
			c0.5,1.63,0.21,2.41-0.97,3.03c-1.74,0.85-2.61,1.28-4.39,2.13c-1.29,0.5-1.77,0.19-2.23-1.51c-0.68-2.5-1.88-3.65-4.19-3.65
			c-3.2,0-4.55,1.91-4.75,5.78c-0.21,4.13-0.32,6.19-0.53,10.32c-0.2,3.87,1.1,5.78,4.66,5.78c2.52,0,3.98-1.25,4.71-3.64
			c0.53-1.73,1.11-2.13,2.39-1.51c1.89,0.85,2.84,1.28,4.77,2.13c1.3,0.56,1.7,1.4,1.26,3.03c-1.64,6.28-6.14,9.81-13.4,9.81
			C293.34,352,288.72,346,289.62,336.35z"/>
		<path class="st1" d="M319.7,348.8c-0.57-11.7-1.14-23.4-1.7-35.11c-0.08-1.74,0.27-2.36,1.51-2.36c6.47,0,9.7,0,16.17,0
			c1.23,0,1.75,0.62,2.02,2.36c0.31,2.02,0.47,3.03,0.78,5.05c0.28,1.79-0.08,2.36-1.38,2.36c-4.29,0-6.44,0-10.73,0
			c0.18,2.02,0.27,3.03,0.45,5.05c3.52,0,5.28,0,8.8,0c1.33,0,1.88,0.62,2.14,2.41c0.29,2,0.43,2.99,0.72,4.99
			c0.26,1.79-0.14,2.41-1.54,2.41c-3.69,0-5.54,0-9.24,0c0.19,2.15,0.29,3.23,0.49,5.38c4.9,0,7.36,0,12.26,0
			c1.39,0,1.97,0.56,2.25,2.36c0.32,2.04,0.48,3.06,0.8,5.1c0.27,1.74-0.15,2.35-1.6,2.35c-8.04,0-12.07,0-20.11,0
			C320.28,351.16,319.78,350.54,319.7,348.8z"/>
		<path class="st0" d="M344.05,336.35c-0.69-4.08-1.03-6.12-1.72-10.21c-1.63-9.65,1.59-15.65,9.15-15.65
			c5.91,0,10.56,3.53,14.07,9.81c0.92,1.63,0.84,2.41-0.18,3.03c-1.51,0.85-2.28,1.28-3.83,2.13c-1.15,0.5-1.72,0.19-2.63-1.51
			c-1.34-2.51-2.83-3.65-5.14-3.65c-3.2,0-4.05,1.91-3.24,5.78c0.87,4.13,1.3,6.19,2.17,10.32c0.81,3.87,2.61,5.78,6.17,5.78
			c2.52,0,3.65-1.25,3.76-3.64c0.08-1.73,0.55-2.13,1.99-1.51c2.11,0.85,3.18,1.28,5.32,2.13c1.45,0.56,2.06,1.4,2.05,3.03
			c0,6.28-3.57,9.81-10.83,9.81C351.87,352,345.67,346,344.05,336.35z"/>
		<path class="st0" d="M374.75,348.86c0.03-11.87-0.52-23.74-1.64-35.56c-0.17-1.63,0.24-1.96,1.33-1.96c1.76,0,2.64,0,4.4,0
			c1.08,0,1.77,0.39,2.73,1.85c7.97,12.11,16.21,23.96,24.76,35.67c1.13,1.51,1.06,2.3-0.35,2.3c-2.03,0-3.04,0-5.07,0
			c-2.4,0-3.4-0.62-4.46-2.35c-1.05-1.62-1.57-2.42-2.61-4.04c-3.98,0-5.97,0-9.95,0c0.14,1.62,0.21,2.42,0.33,4.04
			c0.17,1.74-0.28,2.35-2.58,2.35c-1.97,0-2.96,0-4.93,0C375.25,351.16,374.74,350.37,374.75,348.86z M384.29,329.4
			c-2.28-3.81-3.86-7.91-3.86-7.91c-0.16,0-0.24,0-0.41,0c0,0,1.54,4.04,2.08,7.85c0.34,2.65,0.49,3.97,0.79,6.62
			c2.19,0,3.28,0,5.47,0C386.72,333.34,385.9,332.02,384.29,329.4z"/>
		<path class="st0" d="M409.05,348.8c-5.31-11.7-10.63-23.4-15.94-35.11c-0.79-1.74-0.68-2.36,0.55-2.36c4.4,0,6.6,0,11,0
			c5.82,0,12.38,4.82,17.39,13.52c3.13,5.44,3.72,9.42,1.91,11.55c0.84,0.73,1.68,1.51,2.53,2.41c3.74,3.84,5.65,5.75,9.53,9.59
			c1.52,1.51,1.92,2.75,0.36,2.75c-2.03,0-3.04,0-5.07,0c-2.49,0-3.92-0.73-5.75-2.69c-2.82-3.07-4.2-4.61-6.94-7.68
			c-1.75-1.91-2.98-2.86-4.79-2.86c-0.41,0-0.61,0-1.02,0c2.16,4.35,3.24,6.53,5.39,10.88c0.86,1.74,0.7,2.35-0.81,2.35
			c-2.12,0-3.19,0-5.31,0C410.58,351.16,409.83,350.54,409.05,348.8z M413.51,324.8c-1.22-2.3-2.9-3.7-4.65-3.7
			c-1.76,0-2.63,0-4.39,0c1.48,2.98,2.22,4.48,3.7,7.46c1.82,0,2.74,0,4.56,0C414.5,328.56,414.73,327.1,413.51,324.8z"/>
		<path class="st0" d="M439.96,348.8c-6.96-11.7-13.91-23.4-20.87-35.11c-1.03-1.74-1.01-2.36,0.22-2.36c6.47,0,9.7,0,16.16,0
			c1.23,0,2.09,0.62,3.31,2.36c1.41,2.02,2.12,3.03,3.54,5.05c1.26,1.79,1.2,2.36-0.1,2.36c-4.29,0-6.44,0-10.73,0
			c1.28,2.02,1.93,3.03,3.21,5.05c3.52,0,5.28,0,8.8,0c1.33,0,2.22,0.62,3.46,2.41c1.38,2,2.07,2.99,3.44,4.99
			c1.24,1.79,1.18,2.41-0.22,2.41c-3.69,0-5.54,0-9.24,0c1.37,2.15,2.05,3.23,3.42,5.38c4.9,0,7.36,0,12.26,0
			c1.39,0,2.28,0.56,3.54,2.36c1.43,2.04,2.15,3.06,3.58,5.1c1.22,1.74,1.14,2.35-0.32,2.35c-8.04,0-12.06,0-20.11,0
			C441.83,351.16,440.99,350.54,439.96,348.8z"/>
	</g>
</g>
<g class="st2">
	<g>
		<path class="st1" d="M160.25,344.31c0.72-1.68,1.63-2.47,3.35-3.08c2.2-0.76,3.29-1.14,5.45-1.91c1.7-0.56,2.16-0.36,1.78,1.23
			c-0.46,1.94,0.6,2.97,3.11,2.97c3.01,0,5.33-0.79,6.81-3.2c1.38-2.24-0.58-2.79-3.1-3.31c-4.46-0.92-10.78-2.08-3.2-12.96
			c5.16-7.4,12.8-12.56,20.08-12.56c5.65,0,7.35,2.47,6.12,7.85c-0.38,1.63-1.18,2.47-2.78,3.14c-2.16,0.96-3.25,1.45-5.46,2.41
			c-1.55,0.67-1.87,0.45-1.49-1.18c0.5-2.12-0.46-2.92-2.3-2.92c-2.73,0-4.43,0.95-5.72,2.92c-1.58,2.41,0.56,2.89,3.19,3.42
			c4.21,0.84,9.61,2.47,3.56,13.07c-4.71,8.24-13.53,12.79-21.83,12.79C160.85,353,157.9,350.14,160.25,344.31z"/>
		<path class="st1" d="M187.64,349.8c6.5-11.7,13-23.4,19.5-35.11c0.97-1.74,1.69-2.36,2.92-2.36c6.42,0,9.64,0,16.06,0
			c1.23,0,1.37,0.62,0.59,2.36c-0.91,2.02-1.36,3.03-2.27,5.05c-0.81,1.79-1.5,2.36-2.8,2.36c-4.26,0-6.4,0-10.66,0
			c-1.04,2.02-1.56,3.03-2.59,5.05c3.5,0,5.25,0,8.74,0c1.33,0,1.5,0.62,0.67,2.41c-0.92,2-1.38,2.99-2.3,4.99
			c-0.83,1.79-1.59,2.41-2.98,2.41c-3.67,0-5.51,0-9.18,0c-1.11,2.15-1.66,3.23-2.77,5.38c4.87,0,7.31,0,12.18,0
			c1.38,0,1.62,0.56,0.82,2.36c-0.91,2.04-1.37,3.06-2.29,5.1c-0.78,1.74-1.57,2.35-3.02,2.35c-7.99,0-11.99,0-19.98,0
			C186.8,352.16,186.68,351.54,187.64,349.8z"/>
		<path class="st1" d="M214.99,349.8c5.05-11.7,10.09-23.4,15.14-35.11c0.75-1.74,1.4-2.36,2.63-2.36c4.37,0,6.55,0,10.92,0
			c5.79,0,8.05,4.82,5.35,13.52c-1.69,5.44-4.62,9.42-8.3,11.55c0.19,0.73,0.33,1.51,0.39,2.41c0.33,3.84,0.53,5.75,1.01,9.59
			c0.18,1.51-0.52,2.75-2.06,2.75c-2.02,0-3.02,0-5.04,0c-2.47,0-3.25-0.73-3.34-2.69c-0.09-3.07-0.11-4.61-0.11-7.68
			c-0.05-1.91-0.44-2.86-2.24-2.86c-0.4,0-0.61,0-1.01,0c-1.7,4.35-2.55,6.53-4.24,10.88c-0.68,1.74-1.38,2.35-2.88,2.35
			c-2.11,0-3.16,0-5.27,0C214.44,352.16,214.24,351.54,214.99,349.8z M240.61,325.8c0.81-2.3,0.38-3.7-1.36-3.7
			c-1.74,0-2.62,0-4.36,0c-1.16,2.98-1.75,4.48-2.91,7.46c1.81,0,2.72,0,4.53,0C238.27,329.56,239.79,328.1,240.61,325.8z"/>
		<path class="st1" d="M252.69,350.31c-0.34-11.89-0.12-23.8,0.64-35.67c0.07-1.51,0.67-2.3,1.82-2.3c1.75,0,2.62,0,4.37,0
			c1.96,0,2.4,0.62,2.22,2.36c-0.51,7.67-0.69,11.51-0.88,19.18c-0.11,3.31-0.76,7.24-0.76,7.24c0.16,0,0.24,0,0.4,0
			c0,0,1.08-3.81,2.58-7.18c3.4-7.69,5.02-11.54,8.11-19.24c0.68-1.74,1.38-2.36,3.25-2.36c1.72,0,2.58,0,4.29,0
			c1.19,0,1.33,0.79,0.69,2.3c-4.9,12.06-10.29,23.91-16.1,35.56c-0.81,1.63-1.49,1.96-2.84,1.96c-2.33,0-3.5,0-5.84,0
			C253.28,352.16,252.72,351.77,252.69,350.31z"/>
		<path class="st1" d="M276.36,349.91c1.8-11.78,3.6-23.55,5.39-35.33c0.26-1.68,0.73-2.24,1.88-2.24c1.79,0,2.69,0,4.49,0
			c1.15,0,1.47,0.56,1.28,2.24c-1.31,11.78-2.62,23.55-3.93,35.33c-0.19,1.68-0.72,2.24-2.12,2.24c-2.18,0-3.28,0-5.46,0
			C276.48,352.16,276.1,351.6,276.36,349.91z"/>
		<path class="st1" d="M290.74,337.35c0.38-4.08,0.57-6.12,0.95-10.21c0.89-9.65,5.65-15.65,13.16-15.65
			c5.88,0,9.57,3.53,11.43,9.81c0.5,1.63,0.2,2.41-0.96,3.03c-1.73,0.85-2.6,1.28-4.36,2.13c-1.28,0.5-1.76,0.19-2.22-1.51
			c-0.67-2.5-1.87-3.65-4.16-3.65c-3.18,0-4.52,1.91-4.72,5.78c-0.21,4.13-0.32,6.19-0.53,10.32c-0.2,3.87,1.09,5.78,4.63,5.78
			c2.51,0,3.95-1.25,4.68-3.64c0.53-1.73,1.1-2.13,2.37-1.51c1.88,0.85,2.82,1.28,4.74,2.13c1.3,0.56,1.69,1.4,1.25,3.03
			c-1.63,6.28-6.1,9.81-13.32,9.81C294.44,353,289.85,347,290.74,337.35z"/>
		<path class="st1" d="M320.63,349.8c-0.56-11.7-1.13-23.4-1.69-35.11c-0.08-1.74,0.27-2.36,1.5-2.36c6.42,0,9.64,0,16.06,0
			c1.23,0,1.74,0.62,2.01,2.36c0.31,2.02,0.47,3.03,0.78,5.05c0.28,1.79-0.08,2.36-1.37,2.36c-4.26,0-6.4,0-10.66,0
			c0.18,2.02,0.27,3.03,0.45,5.05c3.5,0,5.25,0,8.74,0c1.33,0,1.87,0.62,2.13,2.41c0.29,2,0.43,2.99,0.71,4.99
			c0.26,1.79-0.13,2.41-1.53,2.41c-3.67,0-5.51,0-9.18,0c0.19,2.15,0.29,3.23,0.48,5.38c4.87,0,7.31,0,12.18,0
			c1.38,0,1.96,0.56,2.24,2.36c0.32,2.04,0.48,3.06,0.79,5.1c0.27,1.74-0.15,2.35-1.59,2.35c-7.99,0-11.99,0-19.98,0
			C321.21,352.16,320.71,351.54,320.63,349.8z"/>
		<path class="st0" d="M344.82,337.35c-0.68-4.08-1.03-6.12-1.71-10.21c-1.62-9.65,1.58-15.65,9.09-15.65
			c5.88,0,10.49,3.53,13.98,9.81c0.92,1.63,0.83,2.41-0.17,3.03c-1.5,0.85-2.26,1.28-3.81,2.13c-1.15,0.5-1.71,0.19-2.61-1.51
			c-1.33-2.51-2.81-3.65-5.11-3.65c-3.18,0-4.02,1.91-3.22,5.78c0.86,4.13,1.29,6.19,2.16,10.32c0.81,3.87,2.59,5.78,6.13,5.78
			c2.51,0,3.63-1.25,3.73-3.64c0.08-1.73,0.55-2.13,1.98-1.51c2.1,0.85,3.16,1.28,5.29,2.13c1.44,0.56,2.05,1.4,2.04,3.03
			c0,6.28-3.54,9.81-10.76,9.81C352.6,353,346.44,347,344.82,337.35z"/>
		<path class="st0" d="M375.34,349.86c0.03-11.87-0.52-23.74-1.63-35.56c-0.17-1.63,0.24-1.96,1.32-1.96c1.75,0,2.62,0,4.37,0
			c1.07,0,1.76,0.39,2.72,1.85c7.92,12.11,16.11,23.96,24.6,35.67c1.13,1.51,1.06,2.3-0.34,2.3c-2.02,0-3.03,0-5.04,0
			c-2.38,0-3.38-0.62-4.43-2.35c-1.04-1.62-1.56-2.42-2.59-4.04c-3.95,0-5.93,0-9.88,0c0.14,1.62,0.2,2.42,0.33,4.04
			c0.17,1.74-0.28,2.35-2.56,2.35c-1.96,0-2.94,0-4.9,0C375.83,352.16,375.32,351.37,375.34,349.86z M384.81,330.4
			c-2.26-3.81-3.83-7.91-3.83-7.91c-0.16,0-0.24,0-0.4,0c0,0,1.53,4.04,2.07,7.85c0.33,2.65,0.49,3.97,0.78,6.62
			c2.17,0,3.26,0,5.44,0C387.22,334.34,386.41,333.02,384.81,330.4z"/>
		<path class="st0" d="M409.41,349.8c-5.28-11.7-10.56-23.4-15.84-35.11c-0.78-1.74-0.68-2.36,0.55-2.36c4.37,0,6.56,0,10.93,0
			c5.79,0,12.3,4.82,17.27,13.52c3.11,5.44,3.69,9.42,1.9,11.55c0.84,0.73,1.66,1.51,2.51,2.41c3.72,3.84,5.61,5.75,9.47,9.59
			c1.51,1.51,1.9,2.75,0.36,2.75c-2.02,0-3.02,0-5.04,0c-2.47,0-3.89-0.73-5.71-2.69c-2.8-3.07-4.18-4.61-6.89-7.68
			c-1.74-1.91-2.96-2.86-4.76-2.86c-0.4,0-0.61,0-1.01,0c2.14,4.35,3.22,6.53,5.36,10.88c0.86,1.74,0.69,2.35-0.8,2.35
			c-2.11,0-3.17,0-5.28,0C410.94,352.16,410.19,351.54,409.41,349.8z M413.84,325.8c-1.22-2.3-2.89-3.7-4.62-3.7
			c-1.74,0-2.62,0-4.36,0c1.47,2.98,2.2,4.48,3.67,7.46c1.81,0,2.72,0,4.53,0C414.83,329.56,415.06,328.1,413.84,325.8z"/>
		<path class="st0" d="M440.12,349.8c-6.91-11.7-13.82-23.4-20.74-35.11c-1.03-1.74-1.01-2.36,0.22-2.36c6.42,0,9.64,0,16.06,0
			c1.23,0,2.08,0.62,3.29,2.36c1.41,2.02,2.11,3.03,3.51,5.05c1.25,1.79,1.2,2.36-0.1,2.36c-4.26,0-6.4,0-10.66,0
			c1.28,2.02,1.91,3.03,3.19,5.05c3.5,0,5.25,0,8.74,0c1.33,0,2.2,0.62,3.43,2.41c1.37,2,2.05,2.99,3.42,4.99
			c1.23,1.79,1.17,2.41-0.22,2.41c-3.67,0-5.51,0-9.18,0c1.36,2.15,2.04,3.23,3.4,5.38c4.87,0,7.31,0,12.18,0
			c1.38,0,2.27,0.56,3.52,2.36c1.42,2.04,2.14,3.06,3.56,5.1c1.21,1.74,1.13,2.35-0.32,2.35c-7.99,0-11.99,0-19.98,0
			C441.98,352.16,441.15,351.54,440.12,349.8z"/>
	</g>
</g>
<g class="st3">
	<polygon class="st4" points="375.5,133 405.5,90 364.5,31 307.5,113 307.5,113 307.5,113 335.5,137 304.5,181 295.5,181 324.5,139 
		302.5,120 238.5,212 320.5,212 351.5,167 352.64,165.34 370.5,140 341.5,115 364.5,82 369.5,89 352.5,113 	"/>
	<text transform="matrix(1 0 0 1 231.1875 252.4551)" class="st4"><tspan x="0" y="0" class="st5 st6">Service</tspan><tspan x="166.66" y="0" class="st0 st5 st6">Care</tspan></text>
	<g class="st4">
		<path class="st0" d="M442.9,143.42l-25.42,18.73l-15.89-22.3l-6.25,7.42l37.13,52.12l6.25-7.42l-15.89-22.3l25.41-18.73L490,211
			l-74,1l-46-57l40.39-57.8L442.9,143.42z"/>
	</g>
</g>
</svg>
